# xmcd
#
# Track frame offsets: 
#        150
#        21989
#        39317
#        54221
#        81079
#        114022
#        149590
#        166828
#        211975
#
# Disc length: 3152 seconds
#
# Revision: 2
# Processed by: cddbd v1.5.2PL0 Copyright (c) Steve Scherf et al.
# Submitted via: ExactAudioCopy v0.95b4
#
DISCID=6b0c4e09
DTITLE=Hart, Beth and Bonamassa, Joe - Live in Amsterdam - CD 02
DYEAR=2014
DGENRE=Rock
TTITLE0=Well, Well
TTITLE1=If I Tell You I Love You
TTITLE2=See Saw
TTITLE3=Strange Fruit
TTITLE4=Miss Lady
TTITLE5=I Love You More Than You'll Ever Know
TTITLE6=Nutbush City Limits
TTITLE7=I'd Rather Go Blind
TTITLE8=Antwerp Jam
EXTD=
EXTT0=
EXTT1=
EXTT2=
EXTT3=
EXTT4=
EXTT5=
EXTT6=
EXTT7=
EXTT8=
PLAYORDER=
